<svg xmlns="http://www.w3.org/2000/svg" width="410" height="341" viewBox="0 0 410 341" fill="none"><mask id="mask0_25_564" style="mask-type:luminance" maskUnits="userSpaceOnUse" x="89" y="0" width="232" height="205"><path d="M89.4609 0H320.128V205H89.4609V0Z" fill="white"></path></mask><g mask="url(#mask0_25_564)"><path d="M201.221 0.630308C198.279 1.39072 196.351 2.55739 193.357 5.40114C186.659 11.6928 182.503 22.0418 180.825 36.6511C178.643 55.0157 181.841 78.7553 189.247 98.9428L190.211 101.636L186.711 108.328C182.346 116.75 181.487 118.271 178.747 122.531C177.529 124.412 176.513 126.083 176.513 126.24C176.513 126.438 173.825 130.5 171.95 133.083C171.799 133.287 169.263 133.948 166.367 134.557C163.424 135.167 159.773 135.979 158.253 136.386C149.122 138.922 145.669 140.037 139.737 142.318C114.982 151.906 96.9713 166.214 90.9869 180.974C89.8202 183.917 89.565 185.287 89.5129 189.089C89.5129 193.302 89.664 193.912 91.0859 196.448C94.1796 201.974 99.3567 204.511 108.284 204.917C119.799 205.474 132.633 201.521 146.836 192.995C150.695 190.714 156.07 187.162 157.997 185.693C168.7 177.422 178.846 167.734 185.544 159.412L186.56 158.146H222.779L223.794 159.412C230.492 167.734 240.638 177.422 251.341 185.693C253.268 187.162 258.643 190.714 262.503 192.995C276.706 201.521 289.539 205.474 301.055 204.917C309.982 204.511 315.159 201.974 318.253 196.448C319.674 193.912 319.825 193.302 319.825 189.089C319.773 185.287 319.518 183.917 318.351 180.974C312.367 166.214 294.357 151.906 269.601 142.318C263.669 140.037 260.216 138.922 251.086 136.386C249.565 135.979 245.914 135.167 242.971 134.557C240.081 133.948 237.544 133.287 237.388 133.083C235.513 130.5 232.825 126.438 232.825 126.24C232.825 126.083 231.81 124.412 230.591 122.531C227.851 118.271 226.992 116.75 222.628 108.328L219.128 101.636L220.091 98.9428C220.648 97.4741 221.763 93.9741 222.575 91.1824C231.404 61.8126 231.456 33.7084 222.779 14.8334C220.242 9.35947 214.919 3.42198 210.857 1.64593C208.169 0.427184 203.805 0.020932 201.221 0.630308ZM210.299 2.91677C223.846 8.95322 231.101 36.1407 227.039 65.8178C225.518 76.6772 221.966 91.2866 219.128 98.2866L218.518 99.8074L216.997 96.6095L215.476 93.4636L217.299 86.9741C221.461 72.4636 223.185 60.6928 223.185 47.4532C223.185 33.3022 221.055 22.6459 216.846 15.5991C213.143 9.45843 209.69 7.02614 204.669 7.02614C199.648 7.02614 196.195 9.45843 192.492 15.5991C188.284 22.6459 186.154 33.3022 186.154 47.4532C186.154 60.6928 187.878 72.4636 192.039 86.9741L193.862 93.4636L192.341 96.6095L190.82 99.8074L190.211 98.2866C188.638 94.3803 185.039 81.547 183.872 75.4064C178.086 45.7814 181.992 18.4376 193.612 6.92198C199.19 1.34385 204.112 0.177182 210.299 2.91677ZM207.055 8.23968C210.351 9.15635 214.31 13.3647 216.846 18.5886C220.753 26.6563 222.169 34.4689 222.169 47.5574C222.169 59.7293 220.497 71.1459 216.794 84.7918C215.831 88.2918 214.966 91.1824 214.867 91.2866C214.763 91.3855 214.055 89.7605 213.294 87.6303L211.872 83.7241L213.445 77.3334C216.742 64.1459 217.351 59.4272 217.351 45.7814C217.351 32.6407 216.997 29.7501 214.56 23.3595C213.242 19.8074 210.758 16.0522 208.831 14.6355C206.851 13.1616 202.487 13.1616 200.508 14.6355C198.581 16.0522 196.096 19.8074 194.779 23.3595C192.341 29.7501 191.987 32.6407 191.987 45.7814C191.987 59.4272 192.596 64.1459 195.893 77.3334L197.466 83.7241L196.044 87.6303C195.284 89.7605 194.575 91.3855 194.471 91.2866C194.065 90.8803 190.768 78.1459 189.753 73.172C187.268 60.5939 186.409 44.8699 187.726 35.2814C189.195 24.5261 192.799 15.698 197.565 11.3855C201.268 7.98968 203.503 7.27614 207.055 8.23968ZM206.904 15.0366C210.351 16.8647 213.294 21.9376 215.169 29.3959C216.185 33.4011 216.336 35.1251 216.336 45.7814C216.289 55.8751 216.133 58.6668 215.169 64.0418C213.596 72.6668 211.466 81.2918 210.961 80.9845C210.706 80.8334 210.044 79.1095 209.44 77.0782L208.372 73.4272L209.44 68.6095C212.383 55.1668 213.346 40.7605 211.82 32.0834C210.45 24.172 207.914 19.9063 204.669 19.9063C196.654 19.9063 194.372 43.448 199.898 68.6095L200.966 73.4272L199.898 77.0782C199.294 79.1095 198.633 80.8334 198.378 80.9845C197.872 81.2918 195.742 72.6668 194.169 64.0418C193.206 58.6668 193.055 55.8751 193.003 45.7814C193.003 35.1251 193.154 33.4011 194.169 29.3959C195.997 22.0886 198.633 17.3699 202.133 15.2918C203.961 14.1251 205.023 14.073 206.904 15.0366ZM206.95 22.4428C212.331 28.1772 212.888 48.7241 208.32 68.6095L207.664 71.4011L206.445 66.5314C205.279 61.7084 205.279 61.5574 206.091 57.3959C207.508 50.0939 208.117 43.3439 207.867 36.698C207.56 29.1407 206.747 26.5053 204.669 26.5053C202.591 26.5053 201.779 29.1407 201.471 36.698C201.221 43.3439 201.831 50.0939 203.247 57.3959C204.06 61.5574 204.06 61.7084 202.893 66.5314L201.674 71.4011L201.018 68.6095C198.43 57.2449 197.164 42.1303 198.279 34.3647C199.341 26.7553 202.133 20.922 204.669 20.922C205.128 20.922 206.19 21.6355 206.95 22.4428ZM206.497 32.0314C207.258 35.6876 206.851 46.2397 205.633 53.6459C204.57 60.0886 204.518 59.9324 203.096 49.1303C202.081 41.1147 202.284 32.3386 203.607 29.2918C204.414 27.4168 204.518 27.3178 205.174 28.2293C205.581 28.7345 206.143 30.4584 206.497 32.0314ZM206.393 75.6616C206.091 77.1824 205.534 79.2136 205.226 80.2241L204.57 82.0001L203.45 77.7918L202.336 73.5782L203.503 68.7605L204.617 63.9428L205.784 68.4064C206.851 72.3647 206.904 73.2761 206.393 75.6616ZM202.893 79.8699L203.961 83.7761L202.841 87.3803C202.185 89.3074 201.523 90.9272 201.372 90.9272C201.221 90.9272 200.56 89.3595 199.95 87.4272L198.784 83.8803L200.206 79.5678C200.966 77.1824 201.674 75.4064 201.674 75.6095C201.726 75.8126 202.284 77.7397 202.893 79.8699ZM209.44 87.2241C208.779 89.2553 208.169 90.9272 207.966 90.9272C207.763 90.9272 207.107 89.2553 206.497 87.2241L205.378 83.573L206.393 80.2761C206.95 78.448 207.461 76.5209 207.461 75.9636C207.508 75.4064 208.169 76.8751 209.034 79.2605L210.555 83.573L209.44 87.2241ZM199.497 89.7136C200.664 93.1616 200.664 93.2136 199.747 95.4949C199.242 96.7657 198.685 98.1824 198.534 98.6407C198.023 100.162 197.518 99.6564 196.351 96.4584C195.284 93.6199 195.232 93.2657 195.945 91.2866C197.211 87.7866 198.023 85.9064 198.174 86.0574C198.279 86.1095 198.836 87.7866 199.497 89.7136ZM206.393 90.323L207.409 92.9584L206.039 96.8126L204.721 100.672L203.503 97.422C201.982 93.4636 201.982 92.9584 203.45 88.9532C204.367 86.4636 204.669 85.9064 204.971 86.6668C205.174 87.1772 205.784 88.8491 206.393 90.323ZM213.497 91.5366C214.055 93.2136 214.003 93.823 212.987 96.5105C211.82 99.6564 211.315 100.162 210.81 98.6407C210.654 98.1824 210.096 96.7657 209.591 95.4949C208.68 93.2136 208.68 93.2136 209.893 89.5105L211.112 85.7553L212.023 87.7345C212.482 88.797 213.143 90.5261 213.497 91.5366ZM195.742 98.0314C197.112 101.583 197.06 102.292 195.336 105.542L193.966 108.229L192.695 105.031L191.378 101.787L192.898 98.3855C193.763 96.5105 194.523 95.0366 194.575 95.1407C194.628 95.1928 195.185 96.5105 195.742 98.0314ZM202.841 98.8439L203.961 101.938L202.591 105.287C201.831 107.162 201.117 108.583 201.018 108.484C200.914 108.38 200.305 106.859 199.648 105.083C198.43 101.636 198.43 101.531 199.898 98.1824C200.461 97.0157 200.867 95.7501 200.867 95.4428C200.867 94.2293 201.674 95.698 202.841 98.8439ZM209.487 98.2866C210.909 101.531 210.909 101.682 209.69 105.083C209.034 106.859 208.424 108.38 208.32 108.484C208.221 108.583 207.508 107.162 206.747 105.234L205.378 101.787L206.341 99.3022C206.851 97.8803 207.461 96.3074 207.711 95.7501C208.018 94.9376 208.117 94.8855 208.32 95.4949C208.476 95.9011 208.982 97.1668 209.487 98.2866ZM216.643 104.979L215.372 108.229L214.003 105.542C212.279 102.24 212.226 101.734 213.648 97.8803L214.763 94.8334L216.336 98.2866L217.961 101.734L216.643 104.979ZM206.143 113.354L204.617 116.396L203.2 113.302L201.726 110.255L203.2 106.708L204.669 103.156L206.143 106.755L207.612 110.307L206.143 113.354ZM192.19 106.859L193.305 110.052L191.174 114.063C190.008 116.245 187.117 121.318 184.68 125.271C180.622 132.021 180.216 132.526 178.799 132.526C177.987 132.526 176.414 132.677 175.346 132.88L173.419 133.188L176.716 128.063C178.596 125.224 180.575 122.026 181.18 121.011C184.633 114.875 185.898 112.542 188.081 108.281C189.351 105.745 190.565 103.609 190.721 103.609C190.924 103.609 191.529 105.083 192.19 106.859ZM199.294 107.115L200.409 110.156L198.935 113.099L197.466 115.99L196.45 114.011C194.628 110.359 194.575 109.849 196.148 106.656C196.909 105.031 197.721 103.813 197.872 103.917C198.023 104.016 198.685 105.438 199.294 107.115ZM214.56 109.901C214.56 110.208 213.95 111.729 213.242 113.25L211.924 116.042L210.45 113.099L208.93 110.156L209.997 107.313C210.607 105.745 211.216 104.219 211.367 103.969C211.617 103.511 214.56 108.886 214.56 109.901ZM221.258 108.281C223.44 112.542 224.706 114.875 228.159 121.011C228.768 122.026 230.742 125.224 232.622 128.063L235.919 133.188L233.992 132.88C232.924 132.677 231.351 132.526 230.539 132.526C229.122 132.526 228.716 132.021 224.659 125.271C222.221 121.318 219.331 116.245 218.164 114.063L216.034 110.052L217.148 106.859C217.81 105.083 218.419 103.609 218.622 103.609C218.773 103.609 219.992 105.745 221.258 108.281ZM195.997 118.984C195.081 120.761 192.393 125.271 190.06 129.026C188.638 131.313 188.539 131.359 185.544 131.714C183.82 131.87 182.398 131.969 182.299 131.87C182.247 131.818 183.872 128.974 185.95 125.526C187.982 122.13 190.669 117.458 191.836 115.229L193.966 111.172L195.388 114.266C196.706 117.261 196.758 117.458 195.997 118.984ZM217.555 115.281C218.721 117.511 221.362 122.13 223.388 125.526C225.466 128.974 227.091 131.818 227.039 131.87C226.94 131.969 225.518 131.87 223.794 131.714C220.393 131.359 220.851 131.818 215.982 123.651C212.331 117.458 212.383 117.818 213.95 114.318C214.716 112.641 215.32 111.219 215.372 111.219C215.424 111.219 216.388 113.047 217.555 115.281ZM202.591 120.453L201.169 123.396L199.747 121.011C198.023 118.021 198.023 117.412 199.648 114.162L201.018 111.526L202.487 114.521L204.008 117.458L202.591 120.453ZM209.742 114.266C211.315 117.412 211.315 118.021 209.591 121.011L208.169 123.396L206.747 120.453L205.331 117.511L206.747 114.62C207.56 113.047 208.221 111.729 208.32 111.729C208.372 111.729 209.034 112.844 209.742 114.266ZM206.341 127.203C205.633 128.521 204.872 129.583 204.669 129.583C204.466 129.583 203.706 128.521 202.997 127.25L201.674 124.917L203.148 121.823L204.617 118.729L206.143 121.823L207.664 124.87L206.341 127.203ZM198.987 121.875L200.409 124.464L198.633 127.656L196.805 130.906L193.508 131.109C191.685 131.156 190.211 131.156 190.211 131.057C190.211 130.906 190.768 129.99 191.43 129.026C192.091 128.011 193.612 125.427 194.825 123.297C196.044 121.115 197.164 119.391 197.315 119.339C197.466 119.339 198.226 120.505 198.987 121.875ZM214.513 123.297C215.726 125.427 217.253 128.011 217.909 129.026C218.57 129.99 219.128 130.906 219.128 131.057C219.128 131.156 217.654 131.156 215.831 131.109L212.534 130.906L210.706 127.656L208.93 124.464L210.351 121.875C211.112 120.505 211.872 119.339 212.023 119.339C212.18 119.391 213.294 121.115 214.513 123.297ZM202.539 128.724L203.857 131.005H201.07C199.544 131.005 198.331 130.906 198.331 130.703C198.331 130.193 200.612 126.438 200.966 126.438C201.117 126.438 201.878 127.453 202.539 128.724ZM209.893 128.469C210.503 129.537 211.013 130.547 211.013 130.703C211.013 130.906 209.794 131.005 208.273 131.005H205.482L206.799 128.724C207.461 127.453 208.221 126.438 208.372 126.438C208.575 126.438 209.237 127.354 209.893 128.469ZM194.523 134.151C193.815 135.37 193.055 136.583 192.851 136.943C192.648 137.245 190.924 137.651 188.992 137.854C185.445 138.261 185.242 138.156 186.815 136.333C187.018 136.026 187.674 135.115 188.185 134.203C189.195 132.526 190.008 132.224 193.659 132.073L195.841 132.021L194.523 134.151ZM202.034 134.557C200.815 136.787 200.461 137.094 198.581 137.396C197.414 137.552 195.893 137.599 195.185 137.5L193.862 137.349L195.591 134.656L197.315 132.021H203.404L202.034 134.557ZM206.143 134.656L207.56 137.094H201.831L203.247 134.609C204.008 133.188 204.669 132.12 204.721 132.172C204.721 132.224 205.378 133.339 206.143 134.656ZM213.753 134.656L215.476 137.349L214.154 137.5C213.445 137.599 211.924 137.552 210.758 137.396C208.878 137.094 208.523 136.787 207.31 134.557L205.94 132.021H212.023L213.753 134.656ZM218.622 132.323C219.685 132.578 220.549 133.188 221.159 134.25C221.716 135.115 222.325 136.026 222.529 136.333C224.096 138.156 223.898 138.261 220.346 137.854C218.419 137.651 216.69 137.245 216.487 136.943C216.289 136.583 215.523 135.37 214.815 134.151L213.497 132.021H215.221C216.185 132.021 217.706 132.172 218.622 132.323ZM187.065 133.646C184.174 138.615 184.581 138.359 179.914 138.87L177.023 139.172L179.049 136.229C181.18 133.188 181.742 132.932 186.56 132.63C187.622 132.526 187.674 132.63 187.065 133.646ZM226.789 133.037C227.799 133.037 228.513 133.693 230.185 136.13L232.315 139.172L229.372 138.87C224.758 138.359 225.164 138.615 222.273 133.594C221.56 132.375 221.56 132.375 223.492 132.677C224.607 132.88 226.075 133.037 226.789 133.037ZM179.049 133.797C179.049 134.203 177.43 136.688 176.669 137.5C176.31 137.854 175.857 138.464 175.654 138.818C175.247 139.427 168.956 140.849 168.497 140.443C168.044 139.932 172.56 134.557 173.622 134.354C174.232 134.203 175.195 134 175.753 133.896C177.325 133.542 179.049 133.49 179.049 133.797ZM236.424 134.609C237.341 135.063 241.143 140.136 240.841 140.443C240.383 140.849 234.091 139.375 233.685 138.818C233.482 138.464 233.029 137.854 232.674 137.5C231.862 136.636 230.289 134.203 230.289 133.745C230.289 133.339 235.362 134.047 236.424 134.609ZM170.43 135.214C170.43 135.318 169.513 136.636 168.398 138.109L166.32 140.849L158.862 142.823C151.607 144.703 141.003 148.052 137.456 149.625C131.315 152.313 124.57 155.708 121.018 157.891C103.513 168.443 93.7265 181.177 95.8567 190.662C96.6171 194.063 98.4921 196.344 101.893 197.917C104.482 199.136 105.242 199.234 111.075 199.234C117.768 199.188 120.711 198.625 127.56 196.089C136.086 192.948 146.633 186.807 155.664 179.807C161.654 175.141 163.122 173.823 170.68 166.214L177.273 159.516L180.726 159.162C183.008 158.906 184.122 158.958 184.122 159.313C184.122 159.974 167.94 176.359 164.95 178.74C163.732 179.703 162.31 180.823 161.805 181.276C161.294 181.682 160.232 182.495 159.518 183.052C158.758 183.563 157.341 184.677 156.325 185.438C153.18 187.875 142.018 194.62 137.456 196.802C128.372 201.162 117.518 204.057 110.008 204.057C100.169 204.057 92.9661 199.896 90.9869 192.995C88.7004 185.182 94.539 173.417 105.544 163.677C106.763 162.557 108.232 161.292 108.789 160.781C109.351 160.224 112.492 158.042 115.742 155.865C128.372 147.391 144.758 140.594 162.31 136.583C164.95 135.979 167.383 135.417 167.638 135.318C168.294 135.063 170.43 135.016 170.43 135.214ZM247.534 136.636C265.445 140.948 281.169 147.495 293.596 155.865C296.846 158.042 299.992 160.224 300.549 160.781C301.107 161.292 302.575 162.557 303.794 163.677C314.805 173.417 320.638 185.182 318.351 192.995C316.378 199.896 309.169 204.057 299.331 204.057C291.82 204.057 280.966 201.162 271.888 196.802C267.32 194.62 256.159 187.875 253.013 185.438C251.997 184.677 250.581 183.563 249.82 183.052C249.107 182.495 248.044 181.682 247.534 181.276C247.029 180.823 245.607 179.703 244.388 178.74C241.398 176.359 225.216 159.974 225.216 159.313C225.216 158.958 226.331 158.906 228.612 159.162L232.065 159.516L238.659 166.214C246.216 173.823 247.69 175.141 253.674 179.807C262.706 186.807 273.258 192.948 281.779 196.089C288.628 198.625 291.57 199.188 298.263 199.234C304.096 199.234 304.862 199.136 307.445 197.917C315.513 194.115 315.867 184.776 308.409 174.833C301.461 165.604 289.69 157.484 271.888 149.625C268.336 148.052 257.732 144.703 250.476 142.823L243.018 140.849L240.94 138.109C239.825 136.636 238.914 135.266 238.914 135.167C238.914 134.813 242.617 135.469 247.534 136.636ZM199.039 139.479C198.581 140.287 197.669 141.656 197.112 142.521C196.096 144.146 195.945 144.193 192.544 144.193H189.044L190.414 142.521C191.174 141.656 192.039 140.391 192.341 139.781C192.799 138.818 193.409 138.615 196.247 138.464C198.075 138.359 199.7 138.261 199.799 138.208C199.898 138.156 199.544 138.719 199.039 139.479ZM209.742 140.745L211.518 143.432L208.273 143.589C206.445 143.688 203.351 143.688 201.372 143.589L197.82 143.432L199.596 140.745L201.424 138.109H207.914L209.742 140.745ZM217.049 139.781C217.351 140.391 218.164 141.656 218.924 142.521L220.294 144.193H216.794C213.393 144.193 213.242 144.146 212.226 142.521C211.669 141.656 210.81 140.339 210.351 139.63L209.539 138.359L212.987 138.516C215.93 138.667 216.539 138.87 217.049 139.781ZM191.378 139.224C191.174 139.578 190.211 140.948 189.247 142.219C187.622 144.5 187.471 144.599 184.482 144.854C182.753 145.005 181.232 145.057 181.133 144.958C181.029 144.802 181.789 143.484 182.857 141.964C184.68 139.276 184.836 139.172 187.372 138.969C188.789 138.87 190.362 138.766 190.872 138.719C191.482 138.667 191.633 138.818 191.378 139.224ZM222.68 139.12C224.351 139.12 224.706 139.375 226.482 141.912C227.549 143.484 228.31 144.802 228.206 144.958C228.107 145.057 226.586 145.005 224.862 144.854C221.867 144.599 221.716 144.5 220.091 142.219C217.253 138.313 217.253 138.412 219.128 138.766C220.039 138.969 221.612 139.12 222.68 139.12ZM181.586 141.761C180.726 142.979 179.763 144.297 179.409 144.755C179.049 145.261 177.378 145.719 175.143 146.021C171.034 146.578 171.086 146.932 174.638 142.573C176.617 140.136 176.971 139.984 181.742 139.729L183.159 139.63L181.586 141.761ZM234.242 142.063C235.211 143.078 236.378 144.5 236.883 145.208L237.794 146.531L234.195 146.021C231.909 145.719 230.289 145.261 229.935 144.755C229.575 144.297 228.565 142.927 227.7 141.708L226.075 139.526L229.325 139.833C232.216 140.136 232.773 140.391 234.242 142.063ZM173.976 141C173.976 141.255 172.966 142.672 171.747 144.245C169.768 146.781 169.263 147.136 167.18 147.391C165.914 147.594 164.237 147.896 163.529 148.052C162.362 148.354 162.258 148.302 162.716 147.443C163.023 146.886 164.138 145.464 165.305 144.193C167.331 141.912 167.94 141.656 173.622 140.693C173.825 140.693 173.976 140.797 173.976 141ZM239.216 141.406C241.294 141.708 242.055 142.115 243.883 144.094C245.101 145.412 246.32 146.886 246.622 147.443C247.081 148.302 246.976 148.354 245.81 148.052C245.101 147.896 243.424 147.594 242.159 147.391C240.081 147.136 239.57 146.781 237.591 144.245C235.31 141.302 234.851 140.339 236.07 140.797C236.424 140.948 237.846 141.203 239.216 141.406ZM162.664 145.464C160.331 148.406 159.721 148.912 157.237 149.573C155.716 150.031 152.518 150.943 150.138 151.604C132.023 156.927 114.169 167.021 106.56 176.255C103.06 180.568 101.945 183.052 101.945 186.755C101.945 192.083 104.529 193.912 112.039 193.912C121.674 193.912 135.32 187.974 147.851 178.333C155.414 172.5 156.221 171.792 164.591 163.677C167.029 161.292 167.534 161.037 170.935 160.479C172.966 160.177 174.69 159.974 174.789 160.073C175.044 160.328 164.591 170.88 161.346 173.62C159.825 174.886 158.351 176.156 158.049 176.406C157.747 176.714 156.122 177.979 154.445 179.198C152.773 180.469 151.305 181.636 151.148 181.787C150.997 181.99 148.612 183.609 145.825 185.386C129.846 195.688 114.169 200.401 104.935 197.662C94.539 194.62 93.9765 185.083 103.565 173.568C113.763 161.292 133.445 150.74 158.508 143.995C162.159 143.026 165.154 142.219 165.2 142.219C165.305 142.167 164.138 143.636 162.664 145.464ZM262.601 147.495C288.628 156.167 308.612 171.287 312.164 184.979C313.789 191.172 310.997 195.734 304.404 197.662C295.169 200.401 279.497 195.688 263.513 185.386C260.726 183.609 258.341 181.99 258.19 181.787C258.039 181.636 256.565 180.469 254.893 179.198C253.216 177.979 251.596 176.714 251.289 176.406C250.987 176.156 249.513 174.886 247.992 173.62C244.747 170.88 234.294 160.328 234.549 160.073C234.648 159.974 236.378 160.177 238.404 160.479C241.805 161.037 242.31 161.292 244.747 163.677C253.117 171.792 253.93 172.5 261.487 178.333C267.117 182.646 272.19 185.745 278.732 188.886C285.987 192.339 291.721 193.912 297.299 193.912C304.81 193.912 307.398 192.083 307.398 186.755C307.398 183.052 306.279 180.568 302.779 176.255C295.169 167.021 277.315 156.927 259.206 151.604C256.82 150.943 253.622 150.031 252.101 149.573C249.617 148.912 249.008 148.406 246.674 145.516L244.086 142.266L250.784 144.042C254.435 145.005 259.763 146.531 262.601 147.495ZM213.039 145.818C213.648 146.479 214.513 147.594 214.966 148.354C215.424 149.167 215.982 149.776 216.185 149.776C216.388 149.776 216.591 149.927 216.591 150.13C216.591 150.386 211.216 150.537 204.669 150.537C198.128 150.537 192.747 150.386 192.747 150.13C192.747 149.927 192.95 149.776 193.154 149.776C193.357 149.776 193.914 149.167 194.372 148.354C196.555 144.755 196.654 144.703 204.669 144.703C211.617 144.703 212.023 144.755 213.039 145.818ZM193.154 148C191.732 149.828 190.617 150.792 189.909 150.792C189.299 150.792 187.726 150.943 186.409 151.146L183.971 151.448L185.393 149.469C188.487 145.261 188.586 145.208 192.091 145.208H195.336L193.154 148ZM222.982 148.255C224.148 149.776 225.065 151.094 224.961 151.198C224.909 151.297 223.336 151.198 221.56 150.995C218.315 150.688 218.216 150.636 216.086 147.896L213.95 145.162L217.404 145.313L220.851 145.464L222.982 148.255ZM185.596 147.339C183.716 150.078 181.638 151.802 180.169 151.802C179.409 151.802 177.883 151.958 176.768 152.162L174.737 152.464L176.768 149.979C177.883 148.609 179.049 147.24 179.357 146.886C179.862 146.328 181.638 146.021 185.289 145.818L186.711 145.719L185.596 147.339ZM230.034 146.932C230.336 147.24 231.456 148.609 232.57 149.979L234.601 152.464L232.57 152.162C231.456 151.958 229.935 151.802 229.169 151.802C227.7 151.802 225.622 150.078 223.695 147.339L222.529 145.615L226.029 145.969C227.904 146.172 229.732 146.63 230.034 146.932ZM177.529 147.037C177.529 147.24 176.513 148.609 175.247 150.078C173.065 152.615 172.81 152.771 169.362 153.328C167.383 153.682 165.711 153.833 165.607 153.781C165.508 153.682 166.622 152.261 168.044 150.688C170.43 148 170.935 147.698 173.471 147.292C177.226 146.682 177.529 146.682 177.529 147.037ZM236.732 147.495C238.508 147.745 239.268 148.302 241.45 150.839C242.867 152.464 243.784 153.833 243.424 153.833C243.07 153.833 241.346 153.578 239.57 153.276C236.581 152.771 236.221 152.516 234.091 150.031C232.825 148.557 231.81 147.24 231.81 147.037C231.81 146.833 232.419 146.781 233.232 146.932C233.992 147.089 235.565 147.339 236.732 147.495ZM167.841 149.115C167.435 149.625 166.878 150.281 166.57 150.589C166.268 150.943 165.404 151.906 164.643 152.818C163.529 154.188 162.565 154.646 159.367 155.406C157.237 155.912 155.414 156.271 155.362 156.167C155.31 156.115 156.529 154.646 158.148 152.922C160.737 150.078 161.346 149.672 164.086 149.068C168.398 148.052 168.7 148.052 167.841 149.115ZM244.997 149.068C248.294 149.828 248.7 150.031 251.289 152.969C252.81 154.698 254.029 156.115 253.976 156.167C253.93 156.271 252.101 155.912 249.971 155.406C246.773 154.646 245.81 154.188 244.695 152.818C243.935 151.906 243.07 150.943 242.768 150.589C241.549 149.318 240.841 148.255 241.143 148.255C241.346 148.255 243.07 148.609 244.997 149.068ZM157.747 151.146C157.747 151.401 156.529 152.818 155.055 154.391C152.674 156.979 152.065 157.333 148.362 158.349C143.336 159.771 134.055 163.422 128.32 166.313C118.43 171.234 109.247 178.844 108.081 183.104C107.32 185.844 107.372 186.198 108.789 187.568C109.857 188.682 110.466 188.839 113.508 188.839C117.669 188.839 120.966 187.922 127.055 185.083C133.95 181.839 145.57 173.568 152.976 166.667C156.325 163.521 156.581 163.37 160.638 162.406C162.82 161.948 164.643 161.594 164.695 161.646C164.846 161.797 157.086 169.307 154.143 171.844C151.659 174.026 143.388 180.109 139.18 182.901C134.763 185.792 126.294 189.849 121.471 191.375C117.112 192.745 109.956 193.25 107.372 192.438C101.081 190.359 101.638 183.359 108.742 175.75C116.857 167.073 130.247 159.412 147.091 153.833C156.378 150.74 157.747 150.386 157.747 151.146ZM262.247 153.833C279.091 159.412 292.482 167.073 300.596 175.75C306.18 181.682 307.799 187.063 305.112 190.307C303.289 192.438 300.956 193.099 295.779 192.745C286.242 192.188 275.591 187.214 261.742 176.917C259.101 174.99 256.159 172.656 255.195 171.844C252.253 169.307 244.492 161.797 244.643 161.646C244.695 161.594 246.523 161.948 248.7 162.406C252.763 163.37 253.013 163.521 256.362 166.667C263.768 173.568 275.388 181.839 282.284 185.083C288.372 187.922 291.669 188.839 295.831 188.839C298.872 188.839 299.482 188.682 300.549 187.568C301.966 186.198 302.018 185.844 301.258 183.104C300.091 178.844 290.909 171.234 281.018 166.313C275.284 163.422 266.003 159.771 260.976 158.349C257.273 157.333 256.669 156.979 254.284 154.391C252.81 152.818 251.596 151.349 251.596 151.146C251.596 150.484 254.081 151.146 262.247 153.833ZM214.867 151.604C217.654 151.906 218.013 152.057 219.383 153.984C220.242 155.104 221.055 156.271 221.258 156.573C221.461 156.979 216.539 157.13 204.669 157.13C192.799 157.13 187.878 156.979 188.081 156.573C190.315 152.969 191.581 151.854 193.508 151.651C197.112 151.349 211.773 151.297 214.867 151.604ZM188.586 153.938C185.898 157.438 185.648 157.589 182.143 157.943C180.32 158.146 178.695 158.198 178.596 158.146C178.492 158.042 179.508 156.677 180.825 155.151C183.315 152.208 182.857 152.365 189.096 151.906C190.263 151.802 190.263 151.854 188.586 153.938ZM228.362 155C231.049 157.943 231.351 158.651 229.68 158.198C229.018 158.042 227.601 157.891 226.435 157.891C224.148 157.891 223.336 157.333 220.7 153.938L219.023 151.755L222.476 152.109C225.872 152.412 226.029 152.464 228.362 155ZM180.523 153.682C177.07 158.094 176.362 158.604 172.2 159.214C167.94 159.818 167.94 160.125 171.95 155.761C173.773 153.833 175.904 153.021 179.763 152.87C181.081 152.818 181.133 152.922 180.523 153.682ZM232.872 153.328C235.612 153.833 236.221 154.339 240.029 158.703C240.94 159.719 240.888 159.719 237.138 159.214C232.976 158.604 232.268 158.094 228.815 153.682C228.206 152.922 228.258 152.818 229.122 152.818C229.68 152.818 231.404 153.073 232.872 153.328ZM169.263 157.031C166.523 160.125 166.367 160.224 162.919 160.833C160.992 161.141 159.065 161.547 158.607 161.75C158.148 161.901 159.216 160.578 160.94 158.755C163.987 155.505 164.19 155.406 167.893 154.698C169.971 154.24 171.799 153.886 171.846 153.886C171.95 153.833 170.784 155.255 169.263 157.031ZM248.398 158.755C250.122 160.578 251.19 161.901 250.732 161.75C250.273 161.547 248.346 161.141 246.419 160.833C243.018 160.224 242.82 160.125 240.18 157.078L237.44 153.938L241.346 154.698C245.2 155.406 245.305 155.505 248.398 158.755ZM158.81 159.109C155.919 162.052 155.211 162.458 152.216 163.219C150.388 163.677 148.461 164.13 147.956 164.287C147.445 164.438 148.513 163.068 150.289 161.24C153.638 157.792 154.091 157.589 161.805 155.912C161.904 155.865 160.586 157.333 158.81 159.109ZM259.049 161.24C260.825 163.068 261.893 164.438 261.383 164.287C260.878 164.13 258.95 163.677 257.122 163.219C254.133 162.458 253.419 162.052 250.581 159.162L247.435 155.964L251.596 156.927C255.654 157.891 255.904 158.042 259.049 161.24ZM147.346 162.354C144.253 165.297 143.289 165.906 139.992 166.974C127.107 171.031 113.612 179.198 113.612 182.901C113.612 184.172 113.763 184.271 115.893 184.271C118.935 184.271 122.69 182.802 128.018 179.453C131.872 177.016 138.164 172.5 138.976 171.589C139.128 171.438 140.549 170.219 142.122 168.849C144.456 166.922 145.924 166.162 149.221 165.198C151.508 164.537 153.482 163.979 153.586 163.979C154.601 163.979 145.466 171.74 139.226 176.203C128.779 183.714 119.596 187.823 113.409 187.823C108.893 187.823 107.878 185.438 110.617 181.177C114.628 174.938 127.461 167.021 142.018 161.797C145.518 160.578 148.716 159.412 149.122 159.261C150.997 158.604 150.643 159.162 147.346 162.354ZM267.32 161.797C281.878 167.021 294.716 174.938 298.721 181.177C303.336 188.328 296.997 190.005 284.82 184.932C280.815 183.255 275.742 180.266 270.112 176.203C263.872 171.74 254.737 163.979 255.753 163.979C255.857 163.979 257.836 164.537 260.117 165.198C263.414 166.162 264.883 166.922 267.216 168.849C268.789 170.219 270.211 171.438 270.362 171.589C271.174 172.5 277.466 177.016 281.32 179.453C286.648 182.802 290.404 184.271 293.445 184.271C295.575 184.271 295.726 184.172 295.726 182.901C295.726 179.198 282.237 171.031 269.351 166.974C266.003 165.906 265.086 165.349 261.992 162.307C257.935 158.349 257.784 158.401 267.32 161.797ZM139.992 169.104C131.06 176.766 119.294 183.609 115.742 183.156L114.523 183.005L115.638 181.583C117.164 179.703 122.237 176.156 126.799 173.823C130.148 172.094 140.851 167.583 141.513 167.583C141.664 167.583 140.956 168.24 139.992 169.104ZM277.971 171.693C285.888 175.24 292.888 179.755 294.206 182.24C294.664 183.156 294.612 183.255 293.497 183.255C289.44 183.255 277.82 176.458 269.351 169.052L267.575 167.531L270.872 168.75C272.695 169.406 275.893 170.724 277.971 171.693Z" fill="#022179"></path></g><path d="M26.0625 232.587H6.14583V242.441H23.9792V247.962H6.14583V258.025H26.6875V263.546H0V227.066H26.0625V232.587Z" fill="#022179"></path><path d="M42.981 257.962H58.7935V263.546H36.8352V227.066H42.981V257.962Z" fill="#022179"></path><path d="M90.8766 255.316H72.4808L68.9808 263.546H62.585L78.6891 227.066H84.9808L100.939 263.546H94.3766L90.8766 255.316ZM88.5225 249.837L81.6475 233.629L74.7725 249.837H88.5225Z" fill="#022179"></path><path d="M108.421 227.066H123.379C128.838 227.066 133.343 228.79 136.9 232.233C140.468 235.665 142.254 240.025 142.254 245.316C142.254 250.598 140.463 254.957 136.879 258.4C133.307 261.832 128.76 263.546 123.234 263.546H108.421V227.066ZM114.567 232.587V258.025H123.546C127.114 258.025 130.088 256.837 132.463 254.462C134.848 252.077 136.046 249.04 136.046 245.358C136.046 241.681 134.817 238.629 132.359 236.212C129.911 233.796 126.885 232.587 123.275 232.587H114.567Z" fill="#022179"></path><path d="M179.556 226.796C184.275 226.796 188.535 228.046 192.327 230.546L189.764 235.962C186.04 233.712 182.478 232.587 179.077 232.587C177.243 232.587 175.79 232.921 174.723 233.587C173.665 234.244 173.139 235.181 173.139 236.4C173.139 237.608 173.624 238.645 174.598 239.504C175.566 240.353 176.785 240.978 178.243 241.379C179.702 241.77 181.275 242.27 182.973 242.879C184.681 243.494 186.264 244.139 187.723 244.816C189.191 245.483 190.4 246.54 191.348 247.983C192.306 249.431 192.785 251.181 192.785 253.233C192.785 256.431 191.504 258.983 188.952 260.9C186.394 262.806 183.087 263.754 179.035 263.754C176.243 263.754 173.54 263.233 170.931 262.191C168.332 261.15 166.061 259.744 164.118 257.962L166.785 252.65C168.618 254.358 170.639 255.671 172.848 256.587C175.056 257.504 177.15 257.962 179.139 257.962C181.29 257.962 182.962 257.577 184.16 256.796C185.353 256.02 185.952 254.936 185.952 253.546C185.952 252.296 185.462 251.249 184.493 250.4C183.519 249.54 182.306 248.91 180.848 248.504C179.389 248.103 177.806 247.619 176.098 247.046C174.4 246.478 172.827 245.874 171.368 245.233C169.91 244.582 168.691 243.546 167.723 242.129C166.749 240.702 166.264 238.978 166.264 236.962C166.264 233.869 167.478 231.4 169.91 229.566C172.337 227.723 175.556 226.796 179.556 226.796Z" fill="#022179"></path><path d="M234.265 263.546H228.119V248.421H208.765V263.546H202.619V227.066H208.765V242.9H228.119V227.066H234.265V263.546Z" fill="#022179"></path><path d="M277.509 227.066V248.421C277.509 253.186 276.097 256.941 273.28 259.691C270.472 262.441 266.597 263.816 261.655 263.816C256.722 263.816 252.842 262.441 250.009 259.691C247.175 256.941 245.759 253.186 245.759 248.421V227.066H251.905V248.421C251.905 251.493 252.78 253.9 254.53 255.65C256.29 257.4 258.686 258.275 261.717 258.275C264.701 258.275 267.056 257.41 268.78 255.671C270.498 253.936 271.363 251.52 271.363 248.421V227.066H277.509Z" fill="#022179"></path><path d="M312.095 263.546L305.429 252.504C305.08 252.535 304.522 252.546 303.762 252.546H295.095V263.546H288.949V227.066H303.762C308.413 227.066 312.022 228.15 314.595 230.316C317.163 232.483 318.449 235.556 318.449 239.525C318.449 242.441 317.793 244.91 316.491 246.921C315.199 248.936 313.335 250.415 310.908 251.358L319.074 263.546H312.095ZM295.095 247.025H303.762C309.663 247.025 312.616 244.577 312.616 239.671C312.616 234.952 309.663 232.587 303.762 232.587H295.095V247.025Z" fill="#022179"></path><path d="M352.838 255.316H334.442L330.942 263.546H324.546L340.65 227.066H346.942L362.9 263.546H356.338L352.838 255.316ZM350.483 249.837L343.608 233.629L336.733 249.837H350.483Z" fill="#022179"></path><path d="M395.299 232.587H383.736V263.546H377.57V232.587H366.07V227.066H395.299V232.587Z" fill="#022179"></path><path d="M409.352 263.546H403.206V227.066H409.352V263.546Z" fill="#022179"></path><path d="M75.195 305.02V299.624C75.195 299.083 75.096 298.708 74.9033 298.499C74.7054 298.28 74.3877 298.166 73.945 298.166H69.4658V296.333H74.0283C76.2471 296.333 77.3617 297.348 77.3617 299.374V305.02H75.195ZM69.4658 305.02V299.978H71.6325V305.02H69.4658Z" fill="#022179"></path><path d="M82.5486 301.958V296.333H84.7153V300.228L83.6319 301.958H82.5486Z" fill="#022179"></path><path d="M88.9155 305.166V303.249C89.3009 303.166 89.6551 303.036 89.978 302.853C90.2957 302.661 90.5718 302.437 90.8114 302.187C91.0874 301.911 91.3009 301.603 91.4572 301.27C91.6082 300.937 91.6864 300.593 91.6864 300.228V298.895C91.6864 298.661 91.6343 298.478 91.5405 298.353C91.4416 298.228 91.2697 298.166 91.0197 298.166H89.4572V296.333H91.6447C92.3791 296.333 92.9259 296.541 93.2905 296.958C93.6499 297.364 93.8322 297.916 93.8322 298.624V302.103L94.1864 305.02H92.2489L91.853 303.166H91.7905C91.4259 303.64 90.9989 304.051 90.4989 304.395C90.0093 304.744 89.4832 304.999 88.9155 305.166Z" fill="#022179"></path><path d="M103.064 305.187C100.116 305.187 98.6477 303.598 98.6477 300.416V296.332H100.814V300.416C100.814 301.447 101.002 302.207 101.377 302.707C101.752 303.197 102.314 303.437 103.064 303.437C103.898 303.437 104.46 303.187 104.752 302.687C105.054 302.176 105.21 301.416 105.21 300.416C105.21 299.515 105.09 298.895 104.856 298.562C104.632 298.218 104.32 298.041 103.919 298.041C103.596 298.041 103.294 298.077 103.002 298.145C102.721 298.202 102.445 298.285 102.169 298.395V296.582C102.419 296.515 102.731 296.431 103.106 296.332C103.481 296.239 103.887 296.187 104.335 296.187C105.012 296.187 105.554 296.312 105.96 296.562C106.361 296.812 106.669 297.145 106.877 297.562C107.096 297.968 107.241 298.41 107.314 298.895C107.398 299.369 107.439 299.832 107.439 300.291C107.439 301.515 107.262 302.489 106.919 303.207C106.57 303.916 106.07 304.426 105.419 304.728C104.762 305.03 103.981 305.187 103.064 305.187Z" fill="#022179"></path><path d="M116.485 305.02V299.624C116.485 299.083 116.386 298.708 116.193 298.499C115.995 298.28 115.677 298.166 115.235 298.166H111.339V296.333H115.318C117.537 296.333 118.651 297.348 118.651 299.374V305.02H116.485Z" fill="#022179"></path><path d="M128.254 305.187C125.306 305.187 123.837 303.598 123.837 300.416V296.332H126.004V300.416C126.004 301.447 126.191 302.207 126.566 302.707C126.941 303.197 127.504 303.437 128.254 303.437C129.087 303.437 129.649 303.187 129.941 302.687C130.243 302.176 130.399 301.416 130.399 300.416C130.399 299.515 130.28 298.895 130.045 298.562C129.821 298.218 129.509 298.041 129.108 298.041C128.785 298.041 128.483 298.077 128.191 298.145C127.91 298.202 127.634 298.285 127.358 298.395V296.582C127.608 296.515 127.92 296.431 128.295 296.332C128.67 296.239 129.076 296.187 129.524 296.187C130.201 296.187 130.743 296.312 131.149 296.562C131.55 296.812 131.858 297.145 132.066 297.562C132.285 297.968 132.431 298.41 132.504 298.895C132.587 299.369 132.629 299.832 132.629 300.291C132.629 301.515 132.451 302.489 132.108 303.207C131.759 303.916 131.259 304.426 130.608 304.728C129.951 305.03 129.17 305.187 128.254 305.187Z" fill="#022179"></path><path d="M141.862 305.208C140.955 305.208 140.174 305.025 139.508 304.666C138.841 304.291 138.325 303.765 137.966 303.083C137.617 302.39 137.445 301.572 137.445 300.624C137.445 300.197 137.476 299.77 137.549 299.353C137.617 298.926 137.695 298.53 137.778 298.166H136.82V296.333H141.799C143.2 296.333 144.299 296.728 145.091 297.52C145.883 298.301 146.278 299.369 146.278 300.728C146.278 301.645 146.096 302.437 145.737 303.103C145.388 303.77 144.883 304.291 144.216 304.666C143.549 305.025 142.763 305.208 141.862 305.208ZM141.799 303.458C143.31 303.458 144.07 302.541 144.07 300.708C144.07 299.791 143.867 299.14 143.466 298.749C143.075 298.364 142.445 298.166 141.57 298.166H139.966C139.893 298.405 139.825 298.723 139.758 299.124C139.685 299.515 139.653 299.978 139.653 300.52C139.653 301.536 139.825 302.28 140.174 302.749C140.534 303.223 141.075 303.458 141.799 303.458Z" fill="#022179"></path><path d="M150.945 305.02V302.603C150.945 301.812 151.076 301.098 151.341 300.458C151.617 299.806 152.029 299.327 152.57 299.02L150.612 296.333H153.091L156.133 300.77C156.31 300.562 156.445 300.286 156.529 299.937C156.612 299.577 156.654 299.161 156.654 298.687V296.333H158.82V298.583C158.82 299.39 158.68 300.119 158.404 300.77C158.122 301.426 157.706 301.895 157.154 302.187L159.279 305.02H156.8L153.612 300.499C153.279 300.931 153.112 301.603 153.112 302.52V305.02H150.945Z" fill="#022179"></path><path d="M172.138 306.499H171.054V294.145H172.138V306.499Z" fill="#022179"></path><path d="M187.645 305.02L190.354 298.166H184.416V296.333H192.708V297.687L189.916 305.02H187.645ZM184.416 308.478V299.666H186.583V308.478H184.416Z" fill="#022179"></path><path d="M197.39 305.02V296.333H199.557V305.02H197.39Z" fill="#022179"></path><path d="M204.972 305.02V296.333H207.138V305.02H204.972Z" fill="#022179"></path><path d="M212.407 301.958V296.333H214.574V300.228L213.491 301.958H212.407Z" fill="#022179"></path><path d="M219.941 305.02L219.128 296.333H221.295L221.67 300.249L222.149 300.103C222.467 299.994 222.691 299.806 222.816 299.541C222.941 299.28 223.035 298.885 223.108 298.353L223.337 296.333H225.483L225.295 298.145C225.253 298.562 225.196 298.952 225.128 299.312C225.056 299.676 224.931 299.999 224.753 300.291C224.571 300.583 224.306 300.848 223.962 301.083C223.628 301.322 223.17 301.53 222.587 301.708L221.837 301.937L221.941 303.208H223.358C224.3 303.208 225.056 302.905 225.628 302.291C226.212 301.681 226.566 300.77 226.691 299.562L227.024 296.333H229.191L228.858 299.603C228.743 300.744 228.451 301.718 227.983 302.52C227.524 303.327 226.899 303.947 226.108 304.374C225.326 304.806 224.41 305.02 223.358 305.02H219.941Z" fill="#022179"></path><path d="M241.81 306.499H240.726V294.145H241.81V306.499Z" fill="#022179"></path><path d="M254.005 301.958V296.333H256.172V300.228L255.088 301.958H254.005Z" fill="#022179"></path><path d="M264.538 305.02L267.247 298.166H261.309V296.333H269.601V297.687L266.809 305.02H264.538ZM261.309 308.478V299.666H263.476V308.478H261.309Z" fill="#022179"></path><path d="M278.617 305.208C277.711 305.208 276.929 305.025 276.263 304.666C275.596 304.291 275.08 303.765 274.721 303.083C274.372 302.39 274.2 301.572 274.2 300.624C274.2 300.197 274.231 299.77 274.304 299.353C274.372 298.926 274.45 298.53 274.534 298.166H273.575V296.333H278.554C279.955 296.333 281.054 296.728 281.846 297.52C282.638 298.301 283.034 299.369 283.034 300.728C283.034 301.645 282.851 302.437 282.492 303.103C282.143 303.77 281.638 304.291 280.971 304.666C280.304 305.025 279.518 305.208 278.617 305.208ZM278.554 303.458C280.065 303.458 280.825 302.541 280.825 300.708C280.825 299.791 280.622 299.14 280.221 298.749C279.83 298.364 279.2 298.166 278.325 298.166H276.721C276.648 298.405 276.58 298.723 276.513 299.124C276.44 299.515 276.409 299.978 276.409 300.52C276.409 301.536 276.58 302.28 276.929 302.749C277.289 303.223 277.83 303.458 278.554 303.458Z" fill="#022179"></path><path d="M286.992 305.02V303.208H289.242L287.555 296.333H289.722L291.347 303.041C291.972 302.833 292.435 302.452 292.742 301.895C293.06 301.343 293.268 300.562 293.367 299.562L293.701 296.333H295.867L295.534 299.603C295.492 300.051 295.414 300.515 295.305 300.999C295.19 301.489 295.018 301.973 294.784 302.458C294.56 302.931 294.248 303.364 293.847 303.749C293.456 304.14 292.951 304.452 292.326 304.687C291.701 304.911 290.935 305.02 290.034 305.02H286.992Z" fill="#022179"></path><path d="M307.911 308.478V301.791L305.89 296.333H308.161L309.807 301.083L310.203 300.978C310.494 300.885 310.713 300.708 310.869 300.458C311.02 300.208 311.119 299.848 311.161 299.374L311.432 296.333H313.598L313.348 299.166C313.307 299.598 313.244 299.994 313.161 300.353C313.088 300.718 312.963 301.041 312.786 301.333C312.604 301.624 312.338 301.89 311.994 302.124C311.661 302.364 311.208 302.562 310.64 302.728L310.078 302.895V308.478H307.911Z" fill="#022179"></path><path d="M317.932 305.02V296.333H320.099V305.02H317.932Z" fill="#022179"></path><path d="M324.576 305.02V303.208H326.826L325.139 296.333H327.305L328.93 303.041C329.555 302.833 330.019 302.452 330.326 301.895C330.644 301.343 330.852 300.562 330.951 299.562L331.285 296.333H333.451L333.118 299.603C333.076 300.051 332.998 300.515 332.889 300.999C332.774 301.489 332.602 301.973 332.368 302.458C332.144 302.931 331.831 303.364 331.43 303.749C331.04 304.14 330.535 304.452 329.91 304.687C329.285 304.911 328.519 305.02 327.618 305.02H324.576Z" fill="#022179"></path><path d="M337.919 301.958V296.333H340.086V300.228L339.002 301.958H337.919Z" fill="#022179"></path><path d="M131.712 340.655C130.889 340.655 130.175 340.478 129.566 340.114C128.951 339.739 128.472 339.166 128.128 338.385C127.795 337.609 127.628 336.629 127.628 335.447C127.628 334.254 127.795 333.275 128.128 332.51C128.472 331.734 128.951 331.166 129.566 330.801C130.175 330.426 130.889 330.239 131.712 330.239C132.545 330.239 133.264 330.426 133.878 330.801C134.488 331.166 134.962 331.734 135.295 332.51C135.639 333.275 135.816 334.254 135.816 335.447C135.816 336.629 135.639 337.609 135.295 338.385C134.962 339.166 134.488 339.739 133.878 340.114C133.264 340.478 132.545 340.655 131.712 340.655ZM131.712 338.968C132.17 338.968 132.55 338.859 132.858 338.635C133.16 338.416 133.399 338.046 133.566 337.53C133.733 337.004 133.816 336.312 133.816 335.447C133.816 334.572 133.733 333.879 133.566 333.364C133.399 332.853 133.16 332.484 132.858 332.26C132.55 332.041 132.17 331.926 131.712 331.926C131.264 331.926 130.889 332.041 130.587 332.26C130.279 332.484 130.045 332.853 129.878 333.364C129.712 333.879 129.628 334.572 129.628 335.447C129.628 336.312 129.712 337.004 129.878 337.53C130.045 338.046 130.279 338.416 130.587 338.635C130.889 338.859 131.264 338.968 131.712 338.968Z" fill="#022179"></path><path d="M146.283 340.656C145.267 340.656 144.46 340.447 143.866 340.031C143.267 339.604 142.877 339.005 142.7 338.239L144.221 337.572L144.387 337.593C144.523 338.041 144.741 338.38 145.033 338.614C145.335 338.838 145.747 338.947 146.262 338.947C146.773 338.947 147.179 338.801 147.471 338.51C147.762 338.208 147.908 337.755 147.908 337.156C147.908 336.562 147.762 336.109 147.471 335.801C147.189 335.499 146.804 335.343 146.304 335.343C145.939 335.343 145.627 335.426 145.366 335.593C145.116 335.76 144.908 335.999 144.741 336.301L143.075 336.197L143.283 330.385H149.304V332.072H144.971L144.866 334.656L145.012 334.676C145.247 334.374 145.523 334.145 145.846 333.989C146.179 333.822 146.58 333.739 147.054 333.739C147.622 333.739 148.122 333.874 148.554 334.135C148.981 334.385 149.314 334.77 149.554 335.281C149.788 335.781 149.908 336.395 149.908 337.114C149.908 337.864 149.767 338.505 149.491 339.031C149.21 339.562 148.793 339.963 148.241 340.239C147.7 340.515 147.043 340.656 146.283 340.656Z" fill="#022179"></path><path d="M156.468 339.697C156.468 339.145 156.52 338.676 156.635 338.301C156.76 337.916 156.958 337.562 157.239 337.239C157.515 336.921 157.911 336.583 158.427 336.218L159.781 335.239C160.14 334.978 160.427 334.749 160.635 334.551C160.843 334.359 160.994 334.155 161.093 333.947C161.203 333.739 161.26 333.499 161.26 333.218C161.26 332.817 161.135 332.504 160.885 332.28C160.635 332.046 160.26 331.926 159.76 331.926C159.27 331.926 158.843 332.046 158.468 332.28C158.093 332.504 157.786 332.817 157.552 333.218L157.406 333.26L156.323 332.01C156.682 331.484 157.145 331.062 157.718 330.739C158.302 330.405 159.01 330.239 159.843 330.239C160.593 330.239 161.224 330.364 161.739 330.614C162.25 330.864 162.625 331.208 162.864 331.635C163.114 332.067 163.239 332.562 163.239 333.114C163.239 333.603 163.135 334.046 162.927 334.447C162.729 334.838 162.453 335.208 162.093 335.551C161.744 335.885 161.291 336.239 160.739 336.614L159.552 337.468C159.187 337.718 158.932 337.947 158.781 338.155C158.64 338.353 158.573 338.583 158.573 338.843H163.135V340.51H156.468V339.697Z" fill="#022179"></path><path d="M174.107 336.426H169.857V334.739H174.107V336.426Z" fill="#022179"></path><path d="M183.474 340.51H181.432L184.911 332.218L184.869 332.072H180.369V330.385H186.953V332.156L183.474 340.51Z" fill="#022179"></path><path d="M197.6 340.655C196.777 340.655 196.063 340.478 195.454 340.114C194.84 339.739 194.36 339.166 194.017 338.385C193.683 337.609 193.517 336.629 193.517 335.447C193.517 334.254 193.683 333.275 194.017 332.51C194.36 331.734 194.84 331.166 195.454 330.801C196.063 330.426 196.777 330.239 197.6 330.239C198.433 330.239 199.152 330.426 199.767 330.801C200.376 331.166 200.85 331.734 201.183 332.51C201.527 333.275 201.704 334.254 201.704 335.447C201.704 336.629 201.527 337.609 201.183 338.385C200.85 339.166 200.376 339.739 199.767 340.114C199.152 340.478 198.433 340.655 197.6 340.655ZM197.6 338.968C198.058 338.968 198.438 338.859 198.746 338.635C199.048 338.416 199.287 338.046 199.454 337.53C199.621 337.004 199.704 336.312 199.704 335.447C199.704 334.572 199.621 333.879 199.454 333.364C199.287 332.853 199.048 332.484 198.746 332.26C198.438 332.041 198.058 331.926 197.6 331.926C197.152 331.926 196.777 332.041 196.475 332.26C196.168 332.484 195.933 332.853 195.767 333.364C195.6 333.879 195.517 334.572 195.517 335.447C195.517 336.312 195.6 337.004 195.767 337.53C195.933 338.046 196.168 338.416 196.475 338.635C196.777 338.859 197.152 338.968 197.6 338.968Z" fill="#022179"></path><path d="M211.317 340.51H209.275L212.754 332.218L212.713 332.072H208.213V330.385H214.796V332.156L211.317 340.51Z" fill="#022179"></path><path d="M224.735 340.656C223.719 340.656 222.912 340.447 222.318 340.031C221.719 339.604 221.328 339.005 221.151 338.239L222.672 337.572L222.839 337.593C222.974 338.041 223.193 338.38 223.485 338.614C223.787 338.838 224.198 338.947 224.714 338.947C225.224 338.947 225.631 338.801 225.922 338.51C226.214 338.208 226.36 337.755 226.36 337.156C226.36 336.562 226.214 336.109 225.922 335.801C225.641 335.499 225.256 335.343 224.756 335.343C224.391 335.343 224.078 335.426 223.818 335.593C223.568 335.76 223.36 335.999 223.193 336.301L221.526 336.197L221.735 330.385H227.756V332.072H223.422L223.318 334.656L223.464 334.676C223.698 334.374 223.974 334.145 224.297 333.989C224.631 333.822 225.032 333.739 225.506 333.739C226.073 333.739 226.573 333.874 227.006 334.135C227.433 334.385 227.766 334.77 228.006 335.281C228.24 335.781 228.36 336.395 228.36 337.114C228.36 337.864 228.219 338.505 227.943 339.031C227.662 339.562 227.245 339.963 226.693 340.239C226.151 340.515 225.495 340.656 224.735 340.656Z" fill="#022179"></path><path d="M239.358 340.655C238.535 340.655 237.821 340.478 237.212 340.114C236.597 339.739 236.118 339.166 235.774 338.385C235.441 337.609 235.274 336.629 235.274 335.447C235.274 334.254 235.441 333.275 235.774 332.51C236.118 331.734 236.597 331.166 237.212 330.801C237.821 330.426 238.535 330.239 239.358 330.239C240.191 330.239 240.91 330.426 241.524 330.801C242.134 331.166 242.608 331.734 242.941 332.51C243.285 333.275 243.462 334.254 243.462 335.447C243.462 336.629 243.285 337.609 242.941 338.385C242.608 339.166 242.134 339.739 241.524 340.114C240.91 340.478 240.191 340.655 239.358 340.655ZM239.358 338.968C239.816 338.968 240.196 338.859 240.504 338.635C240.806 338.416 241.045 338.046 241.212 337.53C241.379 337.004 241.462 336.312 241.462 335.447C241.462 334.572 241.379 333.879 241.212 333.364C241.045 332.853 240.806 332.484 240.504 332.26C240.196 332.041 239.816 331.926 239.358 331.926C238.91 331.926 238.535 332.041 238.233 332.26C237.925 332.484 237.691 332.853 237.524 333.364C237.358 333.879 237.274 334.572 237.274 335.447C237.274 336.312 237.358 337.004 237.524 337.53C237.691 338.046 237.925 338.416 238.233 338.635C238.535 338.859 238.91 338.968 239.358 338.968Z" fill="#022179"></path><path d="M250.2 339.697C250.2 339.145 250.252 338.676 250.366 338.301C250.491 337.916 250.689 337.562 250.971 337.239C251.247 336.921 251.642 336.583 252.158 336.218L253.512 335.239C253.872 334.978 254.158 334.749 254.366 334.551C254.575 334.359 254.726 334.155 254.825 333.947C254.934 333.739 254.991 333.499 254.991 333.218C254.991 332.817 254.866 332.504 254.616 332.28C254.366 332.046 253.991 331.926 253.491 331.926C253.002 331.926 252.575 332.046 252.2 332.28C251.825 332.504 251.517 332.817 251.283 333.218L251.137 333.26L250.054 332.01C250.413 331.484 250.877 331.062 251.45 330.739C252.033 330.405 252.741 330.239 253.575 330.239C254.325 330.239 254.955 330.364 255.471 330.614C255.981 330.864 256.356 331.208 256.596 331.635C256.846 332.067 256.971 332.562 256.971 333.114C256.971 333.603 256.866 334.046 256.658 334.447C256.46 334.838 256.184 335.208 255.825 335.551C255.476 335.885 255.023 336.239 254.471 336.614L253.283 337.468C252.919 337.718 252.663 337.947 252.512 338.155C252.372 338.353 252.304 338.583 252.304 338.843H256.866V340.51H250.2V339.697Z" fill="#022179"></path><path d="M267.213 340.655C266.255 340.655 265.494 340.463 264.942 340.072C264.401 339.687 264.036 339.15 263.859 338.468L265.38 337.78L265.547 337.801C265.807 338.583 266.364 338.968 267.213 338.968C267.864 338.968 268.364 338.697 268.713 338.155C269.057 337.603 269.234 336.775 269.234 335.676L269.088 335.635C268.849 336.067 268.547 336.4 268.172 336.635C267.807 336.859 267.328 336.968 266.734 336.968C266.135 336.968 265.599 336.838 265.13 336.572C264.672 336.312 264.317 335.926 264.067 335.426C263.817 334.926 263.692 334.343 263.692 333.676C263.692 332.984 263.838 332.379 264.13 331.864C264.422 331.338 264.838 330.937 265.38 330.655C265.932 330.379 266.573 330.239 267.297 330.239C268.547 330.239 269.526 330.635 270.234 331.426C270.942 332.218 271.297 333.499 271.297 335.26C271.297 336.468 271.13 337.478 270.797 338.28C270.474 339.072 270.01 339.671 269.401 340.072C268.786 340.463 268.057 340.655 267.213 340.655ZM267.359 335.322C267.869 335.322 268.281 335.171 268.588 334.864C268.89 334.562 269.047 334.15 269.047 333.635C269.047 333.124 268.89 332.713 268.588 332.405C268.297 332.103 267.885 331.947 267.359 331.947C266.843 331.947 266.442 332.093 266.151 332.385C265.859 332.676 265.713 333.093 265.713 333.635C265.713 334.176 265.859 334.593 266.151 334.885C266.442 335.176 266.843 335.322 267.359 335.322Z" fill="#022179"></path></svg>